<?xml version="1.0" encoding="UTF-8" standalone="no"?>
<svg
   xmlns:dc="http://purl.org/dc/elements/1.1/"
   xmlns:cc="http://creativecommons.org/ns#"
   xmlns:rdf="http://www.w3.org/1999/02/22-rdf-syntax-ns#"
   xmlns:svg="http://www.w3.org/2000/svg"
   xmlns="http://www.w3.org/2000/svg"
   xmlns:xlink="http://www.w3.org/1999/xlink"
   xmlns:sodipodi="http://sodipodi.sourceforge.net/DTD/sodipodi-0.dtd"
   xmlns:inkscape="http://www.inkscape.org/namespaces/inkscape"
   width="75"
   height="71"
   viewBox="0 0 75 71"
   version="1.1"
   id="svg22"
   sodipodi:docname="mob-loadingind.svg"
   inkscape:version="0.92.3 (2405546, 2018-03-11)">
  <metadata
     id="metadata26">
    <rdf:RDF>
      <cc:Work
         rdf:about="">
        <dc:format>image/svg+xml</dc:format>
        <dc:type
           rdf:resource="http://purl.org/dc/dcmitype/StillImage" />
        <dc:title></dc:title>
      </cc:Work>
    </rdf:RDF>
  </metadata>
  <sodipodi:namedview
     pagecolor="#ffffff"
     bordercolor="#666666"
     borderopacity="1"
     objecttolerance="10"
     gridtolerance="10"
     guidetolerance="10"
     inkscape:pageopacity="0"
     inkscape:pageshadow="2"
     inkscape:window-width="1877"
     inkscape:window-height="1053"
     id="namedview24"
     showgrid="false"
     inkscape:zoom="3.3239437"
     inkscape:cx="33.047501"
     inkscape:cy="35.491773"
     inkscape:window-x="43"
     inkscape:window-y="27"
     inkscape:window-maximized="1"
     inkscape:current-layer="g20" />
  <defs
     id="defs10">
    <path
       id="b"
       d="M69 35a5 5 0 0 1-10 0c0-13.807-11.193-25-25-25a5 5 0 0 1 0-10c19.33 0 35 15.67 35 35z" />
    <filter
       id="a"
       width="155%"
       height="155%"
       x="-27.5%"
       y="-17.5%"
       filterUnits="objectBoundingBox">
      <feOffset
         dy="4"
         in="SourceAlpha"
         result="shadowOffsetOuter1"
         id="feOffset3" />
      <feGaussianBlur
         in="shadowOffsetOuter1"
         result="shadowBlurOuter1"
         stdDeviation="3"
         id="feGaussianBlur5" />
      <feColorMatrix
         in="shadowBlurOuter1"
         values="0 0 0 0 0 0 0 0 0 0.615686275 0 0 0 0 0.878431373 0 0 0 0.5 0"
         id="feColorMatrix7" />
    </filter>
  </defs>
  <g
     id="g20"
     style="fill:none;fill-rule:nonzero">
    <path
       d="m 38,69.796612 c -18.778,0 -34,-15.222 -34,-34 0,-18.778 15.222,-34.000002 34,-34.000002 18.778,0 34,15.222002 34,34.000002 0,18.778 -15.222,34 -34,34 z m 0,-8 c 14.36,0 26,-11.64 26,-26 0,-14.36 -11.64,-26.0000005 -26,-26.0000005 -14.36,0 -26,11.6400005 -26,26.0000005 0,14.36 11.64,26 26,26 z"
       id="path12"
       inkscape:connector-curvature="0"
       style="fill:#009de0;fill-opacity:0.1" />
    <use
       height="100%"
       width="100%"
       y="0"
       x="0"
       style="fill:#009de0"
       id="use16"
       xlink:href="#b"
       transform="translate(4,0.79661004)" />
  </g>
</svg>
